<svg xmlns="http://www.w3.org/2000/svg" width="600" height="762.698" viewBox="0 0 600 762.698"><linearGradient id="a" gradientUnits="userSpaceOnUse" x1="24.383" y1="104.561" x2="210.676" y2="104.561"><stop offset="0" stop-color="#7b7b7b"/><stop offset=".49" stop-color="#797979"/><stop offset=".667" stop-color="#737272"/><stop offset=".793" stop-color="#686767"/><stop offset=".895" stop-color="#595656"/><stop offset=".981" stop-color="#454041"/><stop offset=".997" stop-color="#413b3c"/></linearGradient><path d="M210.676 169.16c-19.15 24.28-48.806 39.934-81.946 39.934-22.755 0-43.87-7.38-61.066-19.87-26.177-19-43.281-49.84-43.281-84.477V21.67c0-11.9 9.735-21.64 21.64-21.64 5.953 0 11.363 2.434 15.288 6.358 3.92 3.925 6.353 9.33 6.353 15.282v82.678c0 33.581 27.48 61.066 61.066 61.066 29.867 0 54.901-21.732 60.083-50.16 2.045 19.716 9.695 38.437 21.863 53.908z" fill="url(#a)"/><path d="M312.995 48.366a7.78 7.78 0 0 1-.48-.154c-.177-.063-.354-.126-.531-.2.337.114.674.234 1.011.354z" opacity=".36" fill="#fff"/><linearGradient id="b" gradientUnits="userSpaceOnUse" x1="188.246" y1="104.493" x2="573.94" y2="104.493"><stop offset="0" stop-color="#7b7b7b"/><stop offset=".181" stop-color="#848484"/><stop offset=".482" stop-color="#9b9d9e"/><stop offset=".864" stop-color="#c1c4c7"/><stop offset=".997" stop-color="#d0d4d7"/></linearGradient><path d="M573.94 184.694s-7.958 24.292-29.485 24.292c-15.51 0-23.4-12.609-26.6-19.659a26.345 26.345 0 0 1-1.753-9.455v-.091c.034-13.054.051-26.114.046-39.168 0-12.117-.029-24.234-.069-36.351 0-16.345-6.684-31.199-17.459-41.968-10.769-10.774-25.622-17.459-41.967-17.459-32.684 0-59.42 26.743-59.42 59.427v.234c0 11.489-1.909 23.177-5.936 34.632-3.92 11.151-9.54 21.223-16.476 30.021-26.874 34.135-73.44 49.109-116.716 33.9-19.435-6.826-35.574-18.818-47.429-33.888-12.168-15.471-19.818-34.192-21.863-53.908a103.264 103.264 0 0 1 .982-28.616 105.103 105.103 0 0 1 4.388-16.779c7.57-21.538 21.48-39.036 38.9-51.13 26.605-18.47 61.396-24.35 94.292-12.792 11.671 4.102 17.807 16.893 13.705 28.565-4.045 11.517-16.539 17.647-28.085 13.865-.337-.12-.674-.24-1.011-.354a.902.902 0 0 1-.114-.04 59.548 59.548 0 0 0-19.133-3.137c-32.947 0-59.655 26.708-59.655 59.66v.252c.138 32.832 26.794 59.403 59.655 59.403 32.947 0 59.66-26.708 59.66-59.654 0-11.495 1.908-23.183 5.936-34.638 3.92-11.157 9.54-21.223 16.476-30.021 26.874-34.13 73.44-49.109 116.71-33.901 34.42 12.094 58.524 40.38 66.75 73.314v.006a104.046 104.046 0 0 1 3.114 25.234v50.131c0 25.063 12.557 30.073 12.557 30.073z" fill="url(#b)"/><path d="M312.995 48.366a7.78 7.78 0 0 1-.48-.154c-.177-.063-.354-.126-.531-.2.337.114.674.234 1.011.354z" opacity=".36" fill="#fff"/><path d="M312.995 48.366a7.78 7.78 0 0 1-.48-.154c-.177-.063-.354-.126-.531-.2.337.114.674.234 1.011.354z" opacity=".36" fill="#fff"/><path d="M517.856 189.327c-1.16-2.565-1.708-4.393-1.771-4.61l1.77 4.61z" fill="#fff"/><path d="M484.894 103.972c0-15.834-12.836-28.67-28.67-28.67s-28.67 12.836-28.67 28.67 12.836 28.67 28.67 28.67 28.67-12.836 28.67-28.67zm-85.982 281.677c8.408-21.806-2.554-46.526-24.36-54.934-21.805-8.408-46.525 2.554-54.933 24.36l-10.981 28.48c-2.369 6.141.719 13.104 6.86 15.472l28.48 10.981c21.806 8.408 46.526-2.553 54.934-24.359zM0 592.718h8.386v-50.804H0v50.804zm46.456-22.7c0 5.06-.226 8.359-.677 9.895-.452 1.537-1.291 2.737-2.518 3.604-1.227.866-2.813 1.3-4.758 1.3-2.292 0-4.138-.612-5.539-1.837-1.4-1.225-2.286-2.957-2.656-5.199-.209-1.293-.313-4.077-.313-8.351v-27.516H21.61v27.1c0 7.601.548 12.817 1.646 15.646 1.097 2.83 2.864 5.025 5.302 6.585 2.437 1.56 5.827 2.34 10.171 2.34 4.181 0 7.549-.942 10.102-2.826 2.553-1.882 4.193-4.342 4.92-7.38.729-3.038 1.092-7.965 1.092-14.78v-26.685h-8.386v28.105zm19.495-19.51h12.372v42.21h8.386v-42.21h12.337v-8.594H65.951v8.594zm88.408 31.727c-1.618 1.72-3.535 2.582-5.753 2.582-3.027 0-5.487-1.352-7.381-4.055-1.895-2.703-2.842-7.254-2.842-13.654 0-6.169.972-10.592 2.916-13.273 1.944-2.68 4.455-4.02 7.534-4.02 2.152 0 4.021.734 5.606 2.2 1.586 1.468 2.645 3.576 3.177 6.325l8.317-2.426c-1.04-4.458-2.683-7.82-4.925-10.084-3.145-3.188-7.054-4.782-11.725-4.782-5.735 0-10.302 2.126-13.702 6.376-3.908 4.899-5.862 11.679-5.862 20.343 0 8.201 1.94 14.717 5.822 19.545 3.373 4.182 7.774 6.272 13.204 6.272 4.32 0 7.958-1.31 10.916-3.933 2.957-2.622 5.07-6.775 6.342-12.459l-8.144-3.153c-.717 3.742-1.883 6.475-3.5 8.196zm32.698-39.905h-8.386v50.388h29.317v-8.595h-20.93V542.33zm40.6 28h20.931v-8.559h-20.931v-11.263h22.526v-8.594H219.27v50.804h31.675v-8.595h-23.288v-13.792zm63.229 4.211c-1.178-1.536-2.669-2.95-4.47-4.245 3.511-.624 6.22-2.148 8.126-4.574 1.906-2.426 2.86-5.626 2.86-9.6 0-3.141-.625-5.84-1.872-8.091-1.248-2.253-2.842-3.835-4.783-4.748-1.94-.912-5.175-1.369-9.703-1.369h-17.709v50.804h8.387v-21.209h1.733c1.94 0 3.35.19 4.228.572.877.38 1.709 1.074 2.495 2.08.785 1.004 2.273 3.505 4.464 7.502l6.086 11.055h10.035l-5.06-9.911c-2.033-3.974-3.639-6.729-4.817-8.266zM277.96 563.4h-6.238v-12.892h6.584c3.766 0 6.042.127 6.827.381a4.949 4.949 0 0 1 2.634 2.028c.647.982.97 2.282.97 3.898 0 1.688-.323 3.039-.97 4.055-.647 1.017-1.49 1.693-2.53 2.028-1.04.334-3.465.502-7.277.502zm52.642 13.203l-7.574-34.689h-12.577v50.804h7.831V552.69l8.243 40.027h8.092l8.305-40.027v40.027h7.832v-50.804h-12.637l-7.515 34.69zm52.192-35.555c-4.113 0-7.613.959-10.5 2.876-2.89 1.918-5.228 4.834-7.019 8.75s-2.685 8.9-2.685 14.954c0 8.34 1.986 14.901 5.96 19.684 3.489 4.182 8.248 6.272 14.278 6.272 5.984 0 10.72-2.114 14.208-6.342 3.974-4.782 5.961-11.424 5.961-19.926 0-8.409-1.877-14.89-5.632-19.442-3.754-4.55-8.61-6.826-14.571-6.826zm8.277 39.42c-2.175 2.899-4.917 4.349-8.226 4.349-3.285 0-6.039-1.461-8.26-4.384-2.22-2.923-3.332-7.307-3.332-13.152 0-5.96 1.076-10.361 3.228-13.203 2.152-2.842 4.94-4.263 8.364-4.263 3.425 0 6.195 1.41 8.313 4.228 2.117 2.82 3.175 7.174 3.175 13.065 0 6.007-1.088 10.46-3.262 13.36zm49.095-4.627l-17.05-33.927h-8.179v50.804h7.833v-33.13l16.773 33.13h8.455v-50.804h-7.832v33.927zm18.94-25.333h12.372v42.21h8.387v-42.21h12.337v-8.594h-33.095v8.594zm38.21 28.66h15.698v-9.738h-15.699v9.738zm27.083 13.55h8.387v-21.59h17.466v-8.595h-17.466v-12.025h20.17v-8.594h-28.557v50.804zm74.182-37.115c-.947-3.28-2.25-5.949-3.913-8.005-1.661-2.057-3.479-3.518-5.452-4.384-1.974-.867-4.9-1.3-8.776-1.3h-15.337v50.804h15.787c3.393 0 6.168-.48 8.326-1.439 2.158-.958 3.998-2.385 5.522-4.28 1.523-1.893 2.78-4.464 3.773-7.71.992-3.245 1.489-7.064 1.489-11.453 0-4.875-.473-8.952-1.42-12.233zm-8.007 20.592c-.508 2.216-1.15 3.838-1.923 4.865a7.093 7.093 0 0 1-2.98 2.302c-1.213.508-3.171.761-5.874.761h-6.308v-33.615h3.813c3.372 0 5.648.15 6.826.45 1.571.393 2.905 1.212 4.003 2.459 1.097 1.246 1.906 2.954 2.426 5.123.52 2.17.78 5.135.78 8.897 0 3.624-.255 6.543-.763 8.758z" fill="#94c120"/><path d="M254.512 375.851l28.48 10.982c6.141 2.368 13.104-.72 15.472-6.862l10.981-28.48c8.408-21.805-2.553-46.525-24.359-54.933-21.806-8.408-46.526 2.554-54.934 24.36-8.408 21.805 2.554 46.525 24.36 54.933zm55.127 123.214c21.806 8.408 46.526-2.553 54.934-24.36 8.408-21.805-2.554-46.525-24.36-54.933l-28.48-10.981c-6.14-2.368-13.103.719-15.472 6.86l-10.981 28.48c-8.408 21.806 2.554 46.526 24.36 54.934zm-34.533-58.516l10.982-28.48c2.368-6.142-.72-13.105-6.861-15.473l-28.48-10.981c-21.806-8.408-46.526 2.554-54.934 24.36-8.408 21.805 2.554 46.525 24.36 54.933 21.805 8.408 46.525-2.554 54.933-24.36zM43.314 679.785c2.906 0 5.3-.68 7.184-2.04 1.883-1.36 3.182-3.215 3.896-5.565.713-2.35 1.07-5.359 1.07-9.025v-21.873h-4.106v21.847c0 4.786-.658 8.005-1.975 9.658-1.318 1.653-3.44 2.479-6.366 2.479-1.739 0-3.215-.4-4.429-1.2s-2.087-1.967-2.62-3.5c-.535-1.532-.801-4.011-.801-7.437v-21.847H31.06v21.873c0 6.197 1.019 10.519 3.057 12.963 2.037 2.445 5.103 3.667 9.196 3.667zm70.886-8.721l-16.32-29.782h-4.21v37.857h3.951v-29.787l16.295 29.787h4.209v-37.857H114.2v29.782zm47.193-29.782h-4.106v37.857h4.106v-37.857zm51.262 27.502a96.592 96.592 0 0 0-1.655 6.198 119.473 119.473 0 0 0-1.629-6.198l-8.094-27.502h-4.442l12.052 37.857h4.22l12.135-37.857h-4.184l-8.403 27.502zm70.91 5.888h-19.058v-12.886h17.172v-4.467h-17.172v-11.57h18.334v-4.467h-22.44v37.857h23.163v-4.467zm55.792-10.665c-.603-.71-1.482-1.412-2.635-2.105 2.841-.482 5.006-1.609 6.495-3.38 1.489-1.773 2.234-4.087 2.234-6.942 0-2.168-.44-4.074-1.317-5.717-.878-1.643-2.001-2.817-3.37-3.522-1.369-.706-3.49-1.059-6.365-1.059h-13.764v37.857h4.106v-16.81h4.746c1.376 0 2.446.185 3.212.556.765.37 1.556 1.09 2.372 2.16.817 1.07 2.028 3.143 3.632 6.223l4.14 7.871h5.165l-5.423-10.303a26.586 26.586 0 0 0-3.228-4.83zm-5.785-6.017h-8.831v-12.525h9.812c2.204 0 3.865.547 4.984 1.64 1.12 1.094 1.679 2.596 1.679 4.507 0 1.325-.293 2.488-.878 3.486-.586.998-1.377 1.73-2.376 2.195-.999.465-2.462.697-4.39.697zm67.382.97c-1.24-.622-3.39-1.357-6.453-2.205-3.132-.865-5.145-1.719-6.04-2.562-.896-.844-1.344-2.031-1.344-3.564 0-1.652.611-2.999 1.834-4.04 1.222-1.042 2.995-1.563 5.32-1.563 2.289 0 4.066.595 5.332 1.782 1.265 1.188 2.001 3.014 2.208 5.475l3.951-.361c-.07-2.307-.581-4.313-1.537-6.018a9.73 9.73 0 0 0-4.028-3.924c-1.73-.913-3.75-1.37-6.056-1.37-3.357 0-6.026.973-8.005 2.919-1.98 1.945-2.97 4.45-2.97 7.514 0 1.705.344 3.233 1.033 4.584a9.104 9.104 0 0 0 2.893 3.344c1.239.878 3.322 1.752 6.249 2.62 3.287.974 5.426 1.727 6.417 2.26.99.532 1.73 1.215 2.22 2.048.491.833.737 1.808.737 2.925 0 1.907-.677 3.457-2.028 4.651s-3.249 1.79-5.694 1.79c-1.704 0-3.237-.352-4.596-1.058-1.36-.706-2.406-1.64-3.138-2.802s-1.2-2.784-1.407-4.868l-3.874.414c.086 3.942 1.27 7.067 3.551 9.374s5.341 3.46 9.18 3.46c2.462 0 4.567-.464 6.314-1.393 1.747-.928 3.129-2.283 4.145-4.063 1.015-1.78 1.523-3.753 1.523-5.92 0-2.184-.483-4.062-1.449-5.636-.966-1.574-2.396-2.844-4.288-3.813zm43.53 20.18h4.106v-37.858h-4.106v37.857zm65.037-37.858h-24.61v4.467h10.227v33.39h4.105v-33.39h10.278v-4.467zm39.756 33.39v-12.886h17.172v-4.467h-17.172v-11.57h18.334v-4.467h-22.44v37.857h23.163v-4.467h-19.057zm12.214-43.203h-4.984l-2.814 7.23h3.15l4.648-7.23zM50.994 743.556c-1.841 1.777-4.029 2.665-6.562 2.665-3.43 0-6.177-1.447-8.242-4.34-2.065-2.892-3.098-7.231-3.098-13.017 0-3.825.512-6.986 1.536-9.485 1.025-2.498 2.395-4.339 4.113-5.52 1.717-1.183 3.746-1.774 6.088-1.774 4.702 0 7.834 2.929 9.395 8.786l4.56-1.296c-.976-4.024-2.683-7.075-5.12-9.154-2.439-2.079-5.354-3.118-8.748-3.118-3.101 0-5.91.822-8.426 2.465-2.516 1.642-4.51 4.074-5.983 7.292-1.472 3.22-2.208 7.154-2.208 11.804 0 4.709.735 8.792 2.206 12.251 1.471 3.46 3.362 5.972 5.67 7.538 2.31 1.567 5.09 2.35 8.345 2.35 3.702 0 6.844-1.167 9.426-3.5 2.582-2.334 4.389-5.872 5.422-10.616l-4.677-1.411c-.624 3.61-1.856 6.304-3.697 8.08zm21.87 6.726h4.297v-42.23h-4.297v42.23zm29.922-31.284c-3.449 0-6.299 1.388-8.549 4.163-2.25 2.776-3.376 6.803-3.376 12.084 0 5.09 1.116 8.984 3.347 11.682 2.23 2.698 5.149 4.047 8.753 4.047 2.865 0 5.266-.83 7.205-2.492 1.939-1.66 3.278-4.124 4.019-7.389l-4.443-.663c-1.267 4.187-3.517 6.28-6.751 6.28-2.066 0-3.82-.874-5.261-2.62-1.443-1.748-2.25-4.34-2.426-7.779h18.998l.029-1.383c0-5.165-1.101-9.112-3.303-11.839-2.202-2.727-4.95-4.09-8.242-4.09zm-7.22 13.05c.137-2.689.887-4.825 2.252-6.41 1.363-1.584 3.01-2.376 4.939-2.376 2.143 0 3.906.95 5.29 2.851.955 1.307 1.53 3.285 1.724 5.935H95.567zm39.144-11.998c-.828.7-1.739 2.127-2.732 4.278v-4.638h-3.887v30.592h4.296v-16.016c0-2.228.273-4.33.818-6.309.312-1.133.848-2.016 1.608-2.65s1.597-.95 2.513-.95c1.013 0 2.056.374 3.128 1.123l1.461-4.81c-1.5-1.114-2.972-1.672-4.413-1.672-1.033 0-1.963.35-2.792 1.052zm44.817-1.052a7.68 7.68 0 0 0-4.385 1.333c-1.32.888-2.488 2.22-3.505 3.998-.525-1.739-1.405-3.062-2.64-3.97-1.236-.907-2.748-1.36-4.538-1.36a8.01 8.01 0 0 0-4.406 1.288c-1.342.86-2.441 2.082-3.297 3.667v-4.264h-3.858v30.592h4.296v-15.89c0-4.152.57-7.012 1.71-8.578 1.14-1.567 2.694-2.35 4.662-2.35 1.383 0 2.47.519 3.259 1.557.789 1.038 1.184 2.826 1.184 5.364v19.897h4.296V732.49c0-3.115.588-5.398 1.763-6.85 1.176-1.45 2.694-2.177 4.555-2.177.901 0 1.714.25 2.44.75.724.5 1.248 1.207 1.571 2.12.323.913.485 2.466.485 4.657v19.292h4.297v-21c0-3.59-.704-6.202-2.112-7.835-1.408-1.632-3.334-2.449-5.777-2.449zm32.96 0c-3.45 0-6.3 1.345-8.55 4.034-2.25 2.688-3.376 6.673-3.376 11.954 0 5.262 1.135 9.243 3.406 11.94 2.27 2.699 5.11 4.048 8.52 4.048 3.467 0 6.322-1.344 8.563-4.033 2.24-2.688 3.36-6.779 3.36-12.272 0-5.07-1.139-8.949-3.418-11.637-2.28-2.689-5.115-4.034-8.506-4.034zm5.333 24.785c-1.452 1.951-3.19 2.927-5.217 2.927-2.163 0-3.975-.966-5.436-2.898-1.461-1.933-2.192-4.88-2.192-8.84 0-3.923.72-6.855 2.163-8.797 1.441-1.942 3.185-2.913 5.231-2.913 2.163 0 3.975.966 5.437 2.898 1.461 1.933 2.192 4.87 2.192 8.812 0 3.922-.726 6.86-2.178 8.81zm38.665-21.919c-.71-.854-1.644-1.545-2.801-2.073-1.157-.529-2.417-.793-3.778-.793-1.751 0-3.302.416-4.654 1.247-1.351.83-2.495 2.086-3.428 3.766v-4.321h-3.887v30.592h4.296v-16.726c0-3.69.614-6.296 1.842-7.814 1.227-1.519 2.873-2.279 4.939-2.279 1.091 0 2.05.284 2.879.851.828.567 1.437 1.37 1.827 2.408.39 1.038.584 2.682.584 4.931v18.63h4.296v-18.811c0-2.823-.175-4.916-.524-6.28-.35-1.364-.881-2.472-1.59-3.328zm24.877 23.982c-1.013 0-1.705-.345-2.075-1.037-.253-.48-.38-1.546-.38-3.198v-17.888h4.355v-4.033h-4.355v-10.688l-4.297 3.111v7.577h-3.156v4.033h3.156v17.6c0 3.035.17 5.061.512 6.079a4.46 4.46 0 0 0 1.885 2.405c.916.586 2.124.879 3.624.879.955 0 2.027-.154 3.216-.461l-.585-4.58c-.78.134-1.413.2-1.9.2zm38.946-37.794l-13.55 42.23h4.902l3.819-12.79h14.782l4.087 12.79h5.32l-14.39-42.23h-4.97zm-3.47 24.889l3.91-12.387a61.421 61.421 0 0 0 1.924-8.066c.526 2.247 1.353 5.166 2.483 8.757l3.652 11.696h-11.969zm49.274 3.14c0 3.841-.566 6.481-1.695 7.922-1.326 1.67-3.02 2.506-5.086 2.506-1.11 0-2.1-.322-2.967-.965-.867-.644-1.461-1.498-1.783-2.564-.321-1.066-.482-3.173-.482-6.323V719.69h-4.297v18.955c0 2.823.24 5.05.717 6.683.477 1.632 1.427 2.981 2.85 4.047 1.422 1.066 3.137 1.599 5.143 1.599 1.696 0 3.216-.432 4.56-1.296 1.345-.865 2.514-2.161 3.507-3.89v4.494h3.858V719.69h-4.325v16.39zm28.975 2.276c-.683 2.266-1.21 4.205-1.582 5.819a95.802 95.802 0 0 0-1.64-6.165l-5.476-18.321h-4.56l9.683 30.592h4.017l9.683-30.592h-4.443l-5.682 18.667zm31.483-19.359c-3.45 0-6.3 1.388-8.55 4.163-2.25 2.776-3.376 6.803-3.376 12.084 0 5.09 1.116 8.984 3.347 11.682 2.23 2.698 5.149 4.047 8.754 4.047 2.864 0 5.265-.83 7.205-2.492 1.938-1.66 3.277-4.124 4.018-7.389l-4.442-.663c-1.267 4.187-3.518 6.28-6.752 6.28-2.066 0-3.82-.874-5.261-2.62-1.442-1.748-2.25-4.34-2.426-7.779h18.998l.03-1.383c0-5.165-1.102-9.112-3.303-11.839-2.203-2.727-4.95-4.09-8.242-4.09zm-7.22 13.05c.136-2.689.887-4.825 2.25-6.41 1.364-1.584 3.011-2.376 4.94-2.376 2.144 0 3.906.95 5.29 2.851.955 1.307 1.53 3.285 1.725 5.935H419.35zm37.887-11.998c-.828.7-1.74 2.127-2.733 4.278v-4.638h-3.887v30.592h4.296v-16.016c0-2.228.273-4.33.818-6.309.312-1.133.848-2.016 1.608-2.65s1.597-.95 2.514-.95c1.013 0 2.055.374 3.127 1.123l1.461-4.81c-1.5-1.114-2.971-1.672-4.413-1.672-1.033 0-1.963.35-2.791 1.052zm33.648 3.298c-.955-1.45-2.05-2.537-3.288-3.262-1.237-.725-2.606-1.088-4.106-1.088-2.046 0-3.893.577-5.539 1.729-1.647 1.152-2.976 2.957-3.99 5.415-1.013 2.46-1.52 5.33-1.52 8.613 0 4.898 1.15 8.806 3.45 11.725 2.007 2.535 4.53 3.802 7.57 3.802 1.422 0 2.718-.333 3.887-1.001 1.169-.668 2.22-1.66 3.157-2.976 0 3.458-.128 5.724-.38 6.8-.41 1.767-1.175 3.097-2.295 3.99-1.12.893-2.626 1.34-4.516 1.34-1.734 0-3.088-.402-4.062-1.203-.975-.802-1.56-2.024-1.754-3.666l-4.209-.748c-.058 3.09.8 5.511 2.572 7.258 1.773 1.748 4.307 2.622 7.6 2.622 2.494 0 4.627-.58 6.4-1.743 1.773-1.162 3.05-2.746 3.83-4.753.779-2.007 1.169-5.363 1.169-10.068V719.69h-3.976v3.658zm-2.08 19.957c-1.366 1.81-3.025 2.714-4.978 2.714s-3.603-.924-4.95-2.772c-1.347-1.848-2.02-4.785-2.02-8.809 0-3.696.677-6.483 2.035-8.36 1.357-1.877 2.933-2.816 4.73-2.816 2.011 0 3.72.939 5.125 2.816 1.406 1.877 2.11 4.74 2.11 8.591 0 3.947-.685 6.826-2.051 8.636zm38.363-21.44c-.71-.855-1.644-1.546-2.802-2.074-1.157-.529-2.416-.793-3.778-.793-1.75 0-3.301.416-4.653 1.247-1.352.83-2.495 2.086-3.428 3.766v-4.321h-3.887v30.592h4.296v-16.726c0-3.69.614-6.296 1.841-7.814 1.227-1.519 2.874-2.279 4.94-2.279 1.09 0 2.05.284 2.879.851.828.567 1.436 1.37 1.826 2.408.39 1.038.585 2.682.585 4.931v18.63h4.296v-18.811c0-2.823-.175-4.916-.525-6.28-.35-1.364-.88-2.472-1.59-3.328zm26.367-2.867c-3.449 0-6.298 1.388-8.549 4.163-2.25 2.776-3.376 6.803-3.376 12.084 0 5.09 1.115 8.984 3.347 11.682 2.23 2.698 5.148 4.047 8.754 4.047 2.864 0 5.265-.83 7.204-2.492 1.939-1.66 3.278-4.124 4.019-7.389l-4.443-.663c-1.267 4.187-3.517 6.28-6.751 6.28-2.066 0-3.82-.874-5.261-2.62s-2.25-4.34-2.426-7.779h18.998l.03-1.383c0-5.165-1.102-9.112-3.304-11.839-2.202-2.727-4.95-4.09-8.242-4.09zm-7.219 13.05c.136-2.689.887-4.825 2.25-6.41 1.364-1.584 3.011-2.376 4.94-2.376 2.143 0 3.906.95 5.29 2.851.954 1.307 1.53 3.285 1.724 5.935h-14.204z" fill="#9b9b9b"/></svg>